# This file uses centimeters as units for non-parametric coordinates.

mtllib frame2d.mtl
g default
v -5.341637 0.977588 -0.247896
g shellDeformer1Set tweakSet1 vectorAdjust1Set
v -5.319196 0.465487 -0.242194
v -5.319067 0.466881 -0.117520
g default
v -5.341508 0.978982 -0.123222
v -5.341507 0.978995 -0.122038
v -5.341379 0.980375 0.001452
v -4.492896 0.974642 0.000637
g shellDeformer1Set tweakSet1 vectorAdjust1Set
v -4.493024 0.973261 -0.122853
g default
v -5.341767 0.976194 -0.372570
g shellDeformer1Set tweakSet1 vectorAdjust1Set
v -5.319325 0.464093 -0.366868
g default
v -5.341896 0.974800 -0.497244
g shellDeformer1Set tweakSet1 vectorAdjust1Set
v -5.319454 0.462699 -0.491542
v -4.328492 0.508020 0.005684
v -5.318938 0.468275 0.007154
v -4.328622 0.506627 -0.118990
v -4.328751 0.505233 -0.243664
v -4.328880 0.503839 -0.368338
v -4.329009 0.502445 -0.493012
g default
v -3.267065 1.020871 -0.001149
g shellDeformer1Set tweakSet1 vectorAdjust1Set
v -3.267193 1.019490 -0.124640
g default
v -3.267581 1.015295 -0.499845
v -4.493413 0.969066 -0.498059
g shellDeformer1Set tweakSet1 vectorAdjust1Set
v -3.137151 0.610380 0.003305
v -3.137281 0.608986 -0.121369
v -3.137410 0.607592 -0.246043
v -3.137539 0.606198 -0.370716
v -3.137668 0.604804 -0.495390
g default
v -1.832590 1.120357 -0.003747
g shellDeformer1Set tweakSet1 vectorAdjust1Set
v -1.832718 1.118977 -0.127238
g default
v -1.833107 1.114782 -0.502443
g shellDeformer1Set tweakSet1 vectorAdjust1Set
v -1.745067 0.775503 0.000017
v -1.745196 0.774109 -0.124657
v -1.745325 0.772715 -0.249331
v -1.745454 0.771322 -0.374005
v -1.745583 0.769928 -0.498679
g default
v -0.189170 1.272937 -0.007156
g shellDeformer1Set tweakSet1 vectorAdjust1Set
v -0.189298 1.271556 -0.130646
g default
v -0.189687 1.267361 -0.505852
g shellDeformer1Set tweakSet1 vectorAdjust1Set
v -0.151935 1.003240 -0.004179
v -0.152064 1.001847 -0.128853
v -0.152193 1.000453 -0.253527
v -0.152322 0.999059 -0.378201
v -0.152451 0.997665 -0.502875
g default
v 0.247833 1.310305 -0.008026
g shellDeformer1Set tweakSet1 vectorAdjust1Set
v 0.247705 1.308925 -0.131516
g default
v 0.247317 1.304730 -0.506722
g shellDeformer1Set tweakSet1 vectorAdjust1Set
v 0.271840 1.060597 -0.005259
v 0.271711 1.059203 -0.129933
g default
v 0.667628 1.332079 -0.008704
g shellDeformer1Set tweakSet1 vectorAdjust1Set
v 0.667501 1.330698 -0.132195
v 0.271582 1.057809 -0.254607
v 0.271453 1.056415 -0.379281
g default
v 0.667112 1.326503 -0.507400
g shellDeformer1Set tweakSet1 vectorAdjust1Set
v 0.679558 1.101587 -0.006140
v 0.679429 1.100193 -0.130814
v 0.271324 1.055021 -0.503955
v 0.679300 1.098799 -0.255488
g default
v 1.070215 1.338259 -0.009190
g shellDeformer1Set tweakSet1 vectorAdjust1Set
v 1.070087 1.336879 -0.132681
v 0.679171 1.097405 -0.380162
v 1.071220 1.126211 -0.006821
v 1.071091 1.124817 -0.131495
v 0.679042 1.096011 -0.504836
g default
v 1.069699 1.332684 -0.507886
g shellDeformer1Set tweakSet1 vectorAdjust1Set
v 1.070961 1.123423 -0.256169
g default
v 1.455593 1.328846 -0.009484
g shellDeformer1Set tweakSet1 vectorAdjust1Set
v 1.455465 1.327466 -0.132975
v 1.070832 1.122029 -0.380843
v 1.446824 1.134469 -0.007302
v 1.446695 1.133075 -0.131976
v 1.070703 1.120635 -0.505517
g default
v 1.455076 1.323271 -0.508180
g shellDeformer1Set tweakSet1 vectorAdjust1Set
v 1.446566 1.131681 -0.256650
v 1.446436 1.130287 -0.381324
v 1.446307 1.128894 -0.505998
g default
v 2.160028 1.258450 -0.009427
g shellDeformer1Set tweakSet1 vectorAdjust1Set
v 2.159900 1.257069 -0.132917
v 2.135771 1.096432 -0.007590
v 2.135642 1.095038 -0.132264
g default
v 2.159511 1.252874 -0.508123
g shellDeformer1Set tweakSet1 vectorAdjust1Set
v 2.135512 1.093644 -0.256938
v 2.135383 1.092250 -0.381612
v 2.135254 1.090856 -0.506286
g default
v 2.913796 1.109665 -0.008544
g shellDeformer1Set tweakSet1 vectorAdjust1Set
v 2.913668 1.108284 -0.132035
v 2.876250 0.982348 -0.007082
v 2.876121 0.980954 -0.131756
v 2.875992 0.979560 -0.256430
g default
v 2.913279 1.104090 -0.507240
g shellDeformer1Set tweakSet1 vectorAdjust1Set
v 2.875862 0.978166 -0.381104
v 2.875733 0.976772 -0.505778
g default
v 3.716894 0.882341 -0.006834
g shellDeformer1Set tweakSet1 vectorAdjust1Set
v 3.716766 0.880961 -0.130325
v 3.668261 0.792068 -0.005775
v 3.668132 0.790674 -0.130449
v 3.668003 0.789280 -0.255123
g default
v 3.716377 0.876766 -0.505530
g shellDeformer1Set tweakSet1 vectorAdjust1Set
v 3.667873 0.787886 -0.379797
v 3.667744 0.786492 -0.504471
g default
v 4.404693 0.635423 -0.004786
v 4.404565 0.634042 -0.128277
g shellDeformer1Set tweakSet1 vectorAdjust1Set
v 4.511803 0.525439 -0.003667
v 4.511674 0.524046 -0.128341
v 4.511545 0.522652 -0.253015
v 4.511416 0.521258 -0.377689
v 4.511287 0.519864 -0.502363
g default
v 4.404564 0.634029 -0.129460
v 4.404435 0.632635 -0.254134
v 4.404306 0.631241 -0.378808
v 4.404177 0.629847 -0.503482
vt 0.319689 0.604493
vt 0.319689 0.628615
vt 0.290250 0.628615
vt 0.290250 0.604493
vt 0.968570 0.948745
vt 0.976773 0.948745
vt 0.976773 0.909825
vt 0.968570 0.909825
vt 0.349127 0.604493
vt 0.349127 0.628615
vt 0.378565 0.604493
vt 0.378565 0.628615
vt 0.998008 0.909825
vt 0.998008 0.956476
vt 0.968570 0.956476
vt 0.968570 0.909825
vt 0.939131 0.956476
vt 0.939131 0.909825
vt 0.909693 0.956476
vt 0.909693 0.909825
vt 0.880255 0.956476
vt 0.880255 0.909825
vt 0.976773 0.853710
vt 0.968570 0.853710
vt 0.943645 0.853710
vt 0.943645 0.909825
vt 0.998008 0.853710
vt 0.968570 0.853710
vt 0.939131 0.853710
vt 0.909693 0.853710
vt 0.880255 0.853710
vt 0.976773 0.788139
vt 0.968570 0.788139
vt 0.943645 0.788139
vt 0.998008 0.788139
vt 0.968570 0.788139
vt 0.939131 0.788139
vt 0.909693 0.788139
vt 0.880255 0.788139
vt 0.976773 0.713098
vt 0.968570 0.713098
vt 0.943645 0.713098
vt 0.998008 0.713098
vt 0.968570 0.713098
vt 0.939131 0.713098
vt 0.909693 0.713098
vt 0.880255 0.713098
vt 0.976773 0.693137
vt 0.968570 0.693137
vt 0.943645 0.693137
vt 0.998008 0.693137
vt 0.968570 0.693137
vt 0.976773 0.673933
vt 0.968570 0.673933
vt 0.939131 0.693137
vt 0.909693 0.693137
vt 0.943645 0.673933
vt 0.998008 0.673933
vt 0.968570 0.673933
vt 0.880255 0.693137
vt 0.939131 0.673933
vt 0.976773 0.655485
vt 0.968570 0.655485
vt 0.909693 0.673933
vt 0.998008 0.655485
vt 0.968570 0.655485
vt 0.880255 0.673933
vt 0.943645 0.655485
vt 0.939131 0.655485
vt 0.976773 0.637793
vt 0.968570 0.637793
vt 0.909693 0.655485
vt 0.260812 0.628615
vt 0.260812 0.604493
vt 0.289971 0.604493
vt 0.998008 0.637793
vt 0.968570 0.637793
vt 0.880255 0.655485
vt 0.943645 0.637793
vt 0.939131 0.637793
vt 0.909693 0.637793
vt 0.880255 0.637793
vt 0.976773 0.605343
vt 0.968570 0.605343
vt 0.998008 0.605343
vt 0.968570 0.605343
vt 0.943645 0.605343
vt 0.939131 0.605343
vt 0.909693 0.605343
vt 0.880255 0.605343
vt 0.976773 0.570467
vt 0.968570 0.570467
vt 0.998008 0.570467
vt 0.968570 0.570467
vt 0.939131 0.570467
vt 0.943645 0.570467
vt 0.909693 0.570467
vt 0.880255 0.570467
vt 0.976773 0.533164
vt 0.968570 0.533164
vt 0.998008 0.533164
vt 0.968570 0.533164
vt 0.939131 0.533164
vt 0.943645 0.533164
vt 0.909693 0.533164
vt 0.880255 0.533164
vt 0.976773 0.501107
vt 0.968570 0.501107
vt 0.998008 0.493435
vt 0.968570 0.493435
vt 0.939131 0.493435
vt 0.909693 0.493435
vt 0.880255 0.493435
vt 0.414139 0.498479
vt 0.414139 0.493435
vt 0.443577 0.493435
vt 0.443577 0.498479
vt 0.473016 0.493435
vt 0.473016 0.498479
vt 0.502454 0.493435
vt 0.502454 0.498479
vt 0.384701 0.498479
vt 0.384701 0.493435
vt 0.413859 0.498479
vt 0.943645 0.948745
vt 0.951927 0.948745
vt 0.960209 0.948745
vt 0.968491 0.948745
vt 0.968491 0.501107
vt 0.960209 0.501107
vt 0.951927 0.501107
vt 0.943645 0.501107
vt 0.003855 0.418299
vt 0.008665 0.362184
vt 0.016429 0.296613
vt 0.027141 0.221573
vt 0.029839 0.201612
vt 0.031766 0.182407
vt 0.032922 0.163959
vt 0.033307 0.146268
vt 0.031509 0.113818
vt 0.026128 0.078941
vt 0.017157 0.041638
vt 0.004590 0.001909
vt 0.009771 0.006953
vt 0.021409 0.039347
vt 0.032125 0.077171
vt 0.039140 0.112673
vt 0.042463 0.145853
vt 0.042910 0.164004
vt 0.042623 0.182967
vt 0.041601 0.202740
vt 0.039845 0.223324
vt 0.032674 0.300732
vt 0.028002 0.368299
vt 0.025836 0.426038
vt 0.026114 0.466002
vt 0.001992 0.464951
vt 0.918652 0.464951
vt 0.894530 0.466002
vt 0.894808 0.426038
vt 0.892642 0.368299
vt 0.887970 0.300732
vt 0.880799 0.223324
vt 0.879043 0.202740
vt 0.878021 0.182967
vt 0.877734 0.164004
vt 0.878181 0.145853
vt 0.881504 0.112673
vt 0.888519 0.077171
vt 0.899235 0.039347
vt 0.910873 0.006953
vt 0.916054 0.001909
vt 0.903487 0.041638
vt 0.894516 0.078941
vt 0.889135 0.113818
vt 0.887337 0.146268
vt 0.887722 0.163959
vt 0.888878 0.182407
vt 0.890805 0.201612
vt 0.893503 0.221573
vt 0.904215 0.296613
vt 0.911979 0.362184
vt 0.916789 0.418299
vn -0.999041 -0.043763 0.001524
vn -0.999041 -0.043763 0.001524
vn -0.999041 -0.043763 0.001524
vn -0.999041 -0.043763 0.001524
vn 0.006746 0.999915 -0.011186
vn 0.006746 0.999915 -0.011186
vn -0.019531 0.999747 -0.011157
vn -0.019531 0.999747 -0.011157
vn -0.999041 -0.043763 0.001524
vn -0.999041 -0.043763 0.001524
vn -0.999041 -0.043763 0.001524
vn -0.999041 -0.043763 0.001524
vn 0.065010 -0.997823 0.011089
vn 0.040111 -0.999133 0.011129
vn 0.040111 -0.999133 0.011129
vn 0.065010 -0.997823 0.011089
vn 0.040111 -0.999133 0.011129
vn 0.065010 -0.997823 0.011089
vn 0.040111 -0.999133 0.011129
vn 0.065010 -0.997823 0.011089
vn 0.040111 -0.999133 0.011129
vn 0.065010 -0.997823 0.011089
vn -0.054707 0.998441 -0.011106
vn -0.054707 0.998441 -0.011106
vn -0.054707 0.998441 -0.011106
vn -0.019531 0.999747 -0.011157
vn 0.103005 -0.994620 0.011013
vn 0.103005 -0.994620 0.011013
vn 0.103005 -0.994620 0.011013
vn 0.103005 -0.994620 0.011013
vn 0.103005 -0.994620 0.011013
vn -0.081639 0.996601 -0.011058
vn -0.081639 0.996601 -0.011058
vn -0.081639 0.996601 -0.011058
vn 0.130496 -0.991388 0.010949
vn 0.130496 -0.991388 0.010949
vn 0.130496 -0.991388 0.010949
vn 0.130496 -0.991388 0.010949
vn 0.130496 -0.991388 0.010949
vn -0.090941 0.995795 -0.011039
vn -0.090941 0.995795 -0.011039
vn -0.090941 0.995795 -0.011039
vn 0.139980 -0.990094 0.010925
vn 0.139980 -0.990094 0.010925
vn 0.139980 -0.990094 0.010925
vn 0.139980 -0.990094 0.010925
vn 0.139980 -0.990094 0.010925
vn -0.068878 0.997564 -0.011082
vn -0.068878 0.997564 -0.011082
vn -0.068878 0.997564 -0.011082
vn 0.117476 -0.993015 0.010981
vn 0.117476 -0.993015 0.010981
vn -0.033986 0.999360 -0.011138
vn -0.033986 0.999360 -0.011138
vn 0.117476 -0.993015 0.010981
vn 0.117476 -0.993015 0.010981
vn -0.033986 0.999360 -0.011138
vn 0.081823 -0.996586 0.011057
vn 0.081823 -0.996586 0.011057
vn 0.117476 -0.993015 0.010981
vn 0.081823 -0.996586 0.011057
vn 0.004091 0.999929 -0.011184
vn 0.004091 0.999929 -0.011184
vn 0.081823 -0.996586 0.011057
vn 0.042832 -0.999020 0.011125
vn 0.042832 -0.999020 0.011125
vn 0.081823 -0.996586 0.011057
vn 0.004091 0.999929 -0.011184
vn 0.042832 -0.999020 0.011125
vn 0.073030 0.997267 -0.011225
vn 0.073030 0.997267 -0.011225
vn 0.042832 -0.999020 0.011125
vn -0.999041 -0.043763 0.001524
vn -0.999041 -0.043763 0.001524
vn -0.999041 -0.043763 0.001524
vn -0.027953 -0.999547 0.011204
vn -0.027953 -0.999547 0.011204
vn 0.042832 -0.999020 0.011125
vn 0.073030 0.997267 -0.011225
vn -0.027953 -0.999547 0.011204
vn -0.027953 -0.999547 0.011204
vn -0.027953 -0.999547 0.011204
vn 0.148637 0.988828 -0.011209
vn 0.148637 0.988828 -0.011209
vn -0.105819 -0.994322 0.011226
vn -0.105819 -0.994322 0.011226
vn 0.148637 0.988828 -0.011209
vn -0.105819 -0.994322 0.011226
vn -0.105819 -0.994322 0.011226
vn -0.105819 -0.994322 0.011226
vn 0.234828 0.971973 -0.011110
vn 0.234828 0.971973 -0.011110
vn -0.194803 -0.980779 0.011167
vn -0.194803 -0.980779 0.011167
vn -0.194803 -0.980779 0.011167
vn 0.234828 0.971973 -0.011110
vn -0.194803 -0.980779 0.011167
vn -0.194803 -0.980779 0.011167
vn 0.303133 0.952885 -0.010968
vn 0.303133 0.952885 -0.010968
vn -0.269063 -0.963059 0.011046
vn -0.269063 -0.963059 0.011046
vn -0.269063 -0.963059 0.011046
vn 0.303133 0.952885 -0.010968
vn -0.269064 -0.963059 0.011046
vn -0.269064 -0.963059 0.011046
vn 0.410172 0.911947 -0.010621
vn 0.377176 0.926079 -0.010745
vn -0.301392 -0.953437 0.010972
vn -0.301392 -0.953437 0.010972
vn -0.301392 -0.953437 0.010972
vn -0.301392 -0.953437 0.010972
vn -0.301392 -0.953437 0.010972
vn 0.364858 0.931001 -0.010787
vn 0.716419 0.697618 -0.008542
vn 0.716421 0.697616 -0.008542
vn 0.364854 0.931002 -0.010787
vn 0.716421 0.697616 -0.008542
vn 0.364854 0.931002 -0.010787
vn 0.716421 0.697616 -0.008542
vn 0.364854 0.931002 -0.010787
vn 0.716417 0.697620 -0.008542
vn 0.006746 0.999915 -0.011186
vn 0.006746 0.999915 -0.011186
vn 0.006746 0.999915 -0.011186
vn 0.006746 0.999915 -0.011186
vn 0.001036 0.011180 0.999937
vn 0.001036 0.011180 0.999937
vn 0.001036 0.011180 0.999937
vn 0.001036 0.011180 0.999937
vn 0.001036 0.011180 0.999937
vn 0.001036 0.011180 0.999937
vn 0.001036 0.011180 0.999937
vn 0.001036 0.011180 0.999937
vn 0.001036 0.011180 0.999937
vn 0.001036 0.011180 0.999937
vn 0.001036 0.011180 0.999937
vn 0.001036 0.011180 0.999937
vn 0.001036 0.011180 0.999937
vn 0.001036 0.011180 0.999937
vn 0.001036 0.011180 0.999937
vn 0.001036 0.011180 0.999937
vn 0.001036 0.011180 0.999937
vn 0.001036 0.011180 0.999937
vn 0.001036 0.011180 0.999937
vn 0.001036 0.011180 0.999937
vn 0.001036 0.011180 0.999937
vn 0.001036 0.011180 0.999937
vn 0.001036 0.011180 0.999937
vn 0.001036 0.011180 0.999937
vn 0.001036 0.011180 0.999937
vn 0.001036 0.011180 0.999937
vn -0.001036 -0.011180 -0.999937
vn -0.001036 -0.011180 -0.999937
vn -0.001036 -0.011180 -0.999937
vn -0.001036 -0.011180 -0.999937
vn -0.001036 -0.011180 -0.999937
vn -0.001036 -0.011180 -0.999937
vn -0.001036 -0.011180 -0.999937
vn -0.001036 -0.011180 -0.999937
vn -0.001036 -0.011180 -0.999937
vn -0.001036 -0.011180 -0.999937
vn -0.001036 -0.011180 -0.999937
vn -0.001036 -0.011180 -0.999937
vn -0.001036 -0.011180 -0.999937
vn -0.001036 -0.011180 -0.999937
vn -0.001036 -0.011180 -0.999937
vn -0.001036 -0.011180 -0.999937
vn -0.001036 -0.011180 -0.999937
vn -0.001036 -0.011180 -0.999937
vn -0.001036 -0.011180 -0.999937
vn -0.001036 -0.011180 -0.999937
vn -0.001036 -0.011180 -0.999937
vn -0.001036 -0.011180 -0.999937
vn -0.001036 -0.011180 -0.999937
vn -0.001036 -0.011180 -0.999937
vn -0.001036 -0.011180 -0.999937
vn -0.001036 -0.011180 -0.999937
s 1
g typeMesh4
usemtl typeBlinnSG
f 1/1/1 2/2/2 3/3/3 4/4/4
s 2
f 5/5/5 6/6/6 7/7/7 8/8/8
s 1
f 9/9/9 10/10/10 2/2/2 1/1/1
f 11/11/11 12/12/12 10/10/10 9/9/9
s 3
f 13/13/13 14/14/14 3/15/15 15/16/16
f 15/16/16 3/15/15 2/17/17 16/18/18
f 16/18/18 2/17/17 10/19/19 17/20/20
f 17/20/20 10/19/19 12/21/21 18/22/22
s 2
f 7/7/7 19/23/23 20/24/24 8/8/8
f 21/25/25 22/26/26 8/8/8 20/24/24
s 3
f 23/27/27 13/13/13 15/16/16 24/28/28
f 24/28/28 15/16/16 16/18/18 25/29/29
f 25/29/29 16/18/18 17/20/20 26/30/30
f 26/30/30 17/20/20 18/22/22 27/31/31
s 2
f 19/23/23 28/32/32 29/33/33 20/24/24
f 30/34/34 21/25/25 20/24/24 29/33/33
s 3
f 31/35/35 23/27/27 24/28/28 32/36/36
f 32/36/36 24/28/28 25/29/29 33/37/37
f 33/37/37 25/29/29 26/30/30 34/38/38
f 34/38/38 26/30/30 27/31/31 35/39/39
s 2
f 28/32/32 36/40/40 37/41/41 29/33/33
f 38/42/42 30/34/34 29/33/33 37/41/41
s 3
f 39/43/43 31/35/35 32/36/36 40/44/44
f 40/44/44 32/36/36 33/37/37 41/45/45
f 41/45/45 33/37/37 34/38/38 42/46/46
f 42/46/46 34/38/38 35/39/39 43/47/47
s 2
f 36/40/40 44/48/48 45/49/49 37/41/41
f 46/50/50 38/42/42 37/41/41 45/49/49
s 3
f 47/51/51 39/43/43 40/44/44 48/52/52
s 2
f 44/48/48 49/53/53 50/54/54 45/49/49
s 3
f 48/52/52 40/44/44 41/45/45 51/55/55
f 51/55/55 41/45/45 42/46/46 52/56/56
s 2
f 53/57/57 46/50/50 45/49/49 50/54/54
s 3
f 54/58/58 47/51/51 48/52/52 55/59/59
f 52/56/56 42/46/46 43/47/47 56/60/60
f 55/59/59 48/52/52 51/55/55 57/61/61
s 2
f 49/53/53 58/62/62 59/63/63 50/54/54
s 3
f 57/61/61 51/55/55 52/56/56 60/64/64
f 61/65/65 54/58/58 55/59/59 62/66/66
f 60/64/64 52/56/56 56/60/60 63/67/67
s 2
f 64/68/68 53/57/57 50/54/54 59/63/63
s 3
f 62/66/66 55/59/59 57/61/61 65/69/69
s 2
f 58/62/62 66/70/70 67/71/71 59/63/63
s 3
f 65/69/69 57/61/61 60/64/64 68/72/72
s 1
f 14/73/73 6/74/74 5/75/75 4/4/4 3/3/3
s 3
f 69/76/76 61/65/65 62/66/66 70/77/77
f 68/72/72 60/64/64 63/67/67 71/78/78
s 2
f 72/79/79 64/68/68 59/63/63 67/71/71
s 3
f 70/77/77 62/66/66 65/69/69 73/80/80
f 73/80/80 65/69/69 68/72/72 74/81/81
f 74/81/81 68/72/72 71/78/78 75/82/82
s 2
f 66/70/70 76/83/83 77/84/84 67/71/71
s 3
f 78/85/85 69/76/76 70/77/77 79/86/86
s 2
f 80/87/87 72/79/79 67/71/71 77/84/84
s 3
f 79/86/86 70/77/77 73/80/80 81/88/88
f 81/88/88 73/80/80 74/81/81 82/89/89
f 82/89/89 74/81/81 75/82/82 83/90/90
s 2
f 76/83/83 84/91/91 85/92/92 77/84/84
s 3
f 86/93/93 78/85/85 79/86/86 87/94/94
f 87/94/94 79/86/86 81/88/88 88/95/95
s 2
f 89/96/96 80/87/87 77/84/84 85/92/92
s 3
f 88/95/95 81/88/88 82/89/89 90/97/97
f 90/97/97 82/89/89 83/90/90 91/98/98
s 2
f 84/91/91 92/99/99 93/100/100 85/92/92
s 3
f 94/101/101 86/93/93 87/94/94 95/102/102
f 95/102/102 87/94/94 88/95/95 96/103/103
s 2
f 97/104/104 89/96/96 85/92/92 93/100/100
s 3
f 96/103/103 88/95/95 90/97/97 98/105/105
f 98/105/105 90/97/97 91/98/98 99/106/106
s 2
f 92/99/99 100/107/107 101/108/108 93/100/100
s 3
f 102/109/109 94/101/101 95/102/102 103/110/110
f 103/110/110 95/102/102 96/103/103 104/111/111
f 104/111/111 96/103/103 98/105/105 105/112/112
f 105/112/112 98/105/105 99/106/106 106/113/113
s 2
f 107/114/114 103/115/115 104/116/116 108/117/117
f 108/117/117 104/116/116 105/118/118 109/119/119
f 109/119/119 105/118/118 106/120/120 110/121/121
f 100/122/107 102/123/122 103/115/115 107/114/114 101/124/108
f 8/8/8 22/26/26 11/125/123 9/126/124 1/127/125 4/128/126 5/5/5
f 101/108/108 107/129/114 108/130/117 109/131/119 110/132/121 97/104/104 93/100/100
s off
f 13/133/127 23/134/128 31/135/129 39/136/130 47/137/131 54/138/132 61/139/133 69/140/134 78/141/135 86/142/136 94/143/137 102/144/138 100/145/139 92/146/140 84/147/141 76/148/142 66/149/143 58/150/144 49/151/145 44/152/146 36/153/147 28/154/148 19/155/149 7/156/150 6/157/151 14/158/152
f 12/159/153 11/160/154 22/161/155 21/162/156 30/163/157 38/164/158 46/165/159 53/166/160 64/167/161 72/168/162 80/169/163 89/170/164 97/171/165 110/172/166 106/173/167 99/174/168 91/175/169 83/176/170 75/177/171 71/178/172 63/179/173 56/180/174 43/181/175 35/182/176 27/183/177 18/184/178
